<svg id="Layer_1" data-name="Layer 1" xmlns="http://www.w3.org/2000/svg" width="2in" height="2in" viewBox="0 0 144 144"><title>cat</title><path d="M56.5,90.8c-2,1.9-6.1,1-8.6-.9s-4.6-6-2.7-8.9,5.9-3,8.6-1.6C58,81.6,59.2,88.4,56.5,90.8Z" fill="#231f20"/><path d="M88.3,90.8c2,1.9,6.1,1,8.6-.9s4.6-6,2.7-8.9-5.9-3-8.6-1.6S85.6,88.4,88.3,90.8Z" fill="#231f20"/><path d="M88.7,106.9a1.6,1.6,0,0,0-2.2.5,7.7,7.7,0,0,1-5.3,3.5,7.6,7.6,0,0,1-5-1.3,4.7,4.7,0,0,1-1.9-3.9v-4a6.2,6.2,0,0,0,3.6-1.8,5.5,5.5,0,0,0,1.3-4,1.6,1.6,0,0,0-3.2.2,2.1,2.1,0,0,1-.5,1.6,4.5,4.5,0,0,1-5.4.2,2,2,0,0,1-.6-1.8,1.7,1.7,0,0,0-1.6-1.7h0a1.5,1.5,0,0,0-1.6,1.5,5.2,5.2,0,0,0,1.5,4.2,6.2,6.2,0,0,0,3.3,1.7v3.9a4.7,4.7,0,0,1-1.9,3.9,7.6,7.6,0,0,1-5,1.3,7.7,7.7,0,0,1-5.3-3.5,1.6,1.6,0,0,0-2.2-.5,1.5,1.5,0,0,0-.5,2.2,10.6,10.6,0,0,0,7.6,4.9H65a10,10,0,0,0,6-1.9,5.5,5.5,0,0,0,1.7-1.7,5.5,5.5,0,0,0,1.7,1.7,10.2,10.2,0,0,0,6,1.9h1.2a10.5,10.5,0,0,0,7.6-4.9A1.5,1.5,0,0,0,88.7,106.9Z" fill="#231f20"/><path d="M39.2,64.5h-.6a1.7,1.7,0,0,1-.9-2.1,17.7,17.7,0,0,1,4.9-6.7,18,18,0,0,1,5.8-3.1c.2,0,.3-.2.4-.3a.6.6,0,0,0-.1-.4L37.6,35.5a1.6,1.6,0,0,1,.4-2.2,1.6,1.6,0,0,1,2.2.4L51.3,50a3.7,3.7,0,0,1,.5,3.2,4,4,0,0,1-2.5,2.4A12.6,12.6,0,0,0,44.7,58a13.5,13.5,0,0,0-4,5.5A1.8,1.8,0,0,1,39.2,64.5Z" fill="#231f20"/><path d="M105.7,64.5a1.5,1.5,0,0,1-1.5-1,14.5,14.5,0,0,0-4-5.5,13.1,13.1,0,0,0-4.7-2.4,3.8,3.8,0,0,1-2.4-2.4,3.7,3.7,0,0,1,.4-3.2l11.1-16.3a1.6,1.6,0,0,1,2.2-.4,1.6,1.6,0,0,1,.4,2.2l-11,16.3c-.1.1-.2.3-.1.4s.1.3.4.3a17.6,17.6,0,0,1,5.7,3.1,16.2,16.2,0,0,1,4.9,6.7,1.6,1.6,0,0,1-.8,2.1Z" fill="#231f20"/><path d="M140.5,98.3a1.5,1.5,0,0,0-2.1-.7,31.9,31.9,0,0,1-5.9,2.1,33.7,33.7,0,0,1-12.8.9A31.2,31.2,0,0,0,124,85.1,32.2,32.2,0,0,0,116.6,65l.2-36.4a7.8,7.8,0,0,0-13.5-5.3L81.6,46.7a68.6,68.6,0,0,0-18.1,0L41.8,23.3a7.8,7.8,0,0,0-13.5,5.3l.2,36.7a32.5,32.5,0,0,0-7.1,19.8,31.3,31.3,0,0,0,4.2,15.4,33.1,33.1,0,0,1-13.8-.8,31.9,31.9,0,0,1-5.9-2.1,1.5,1.5,0,1,0-1.3,2.8,38.1,38.1,0,0,0,6.4,2.4,45,45,0,0,0,10,1.3,33,33,0,0,0,6.4-.7,48.4,48.4,0,0,0,4.8,5.5,60.3,60.3,0,0,0-8.5,1.4,72.3,72.3,0,0,0-14.8,5.2,1.5,1.5,0,0,0-.7,2.1,1.6,1.6,0,0,0,1.4.9l.7-.2a71.4,71.4,0,0,1,14.1-4.9,80.8,80.8,0,0,1,10.8-1.7h.1c9.4,7.6,22.7,12.4,37.4,12.4s27.9-4.8,37.3-12.3a68,68,0,0,1,9.9,1.6,71.4,71.4,0,0,1,14.1,4.9l.7.2a1.6,1.6,0,0,0,1.4-.9,1.5,1.5,0,0,0-.7-2.1,72.3,72.3,0,0,0-14.8-5.2,65.4,65.4,0,0,0-7.5-1.3,35.7,35.7,0,0,0,4.8-5.5,23.8,23.8,0,0,0,5.5.6,44.9,44.9,0,0,0,9.9-1.3,35.1,35.1,0,0,0,6.4-2.4A1.5,1.5,0,0,0,140.5,98.3ZM24.6,85.1a29.1,29.1,0,0,1,6.8-18.3l.3-.4-.2-37.8a4.4,4.4,0,0,1,2.9-4.3,4.8,4.8,0,0,1,1.8-.4,4.4,4.4,0,0,1,3.3,1.5L62.3,50.1h.9A62.3,62.3,0,0,1,82,49.9h.8l22.9-24.6a4.3,4.3,0,0,1,5-1.1,4.4,4.4,0,0,1,2.9,4.3l-.2,37.5.4.4a29.3,29.3,0,0,1,7,18.6,28,28,0,0,1-4.8,15.5c-.2.2-.5.5-.5.8h0a37.1,37.1,0,0,1-6.6,7.2,1.4,1.4,0,0,0-1.1.9c-8.8,7-21.3,11.4-35.1,11.4C46.2,120.9,24.6,104.8,24.6,85.1Z" fill="#231f20"/></svg>