<svg id="Layer_1" data-name="Layer 1" xmlns="http://www.w3.org/2000/svg" width="2in" height="2in" viewBox="0 0 144 144"><title>dog</title><ellipse cx="57.5" cy="65.3" rx="4.2" ry="6.2" fill="#231f20"/><ellipse cx="88.4" cy="65.3" rx="4.2" ry="6.2" fill="#231f20"/><path d="M82.6,103.4c1.3,3.5-3.5,10-9.3,10.2s-11.2-6.5-10.1-10.1,9.6-3.6,10.1-3.6S81.4,100,82.6,103.4Z" fill="#231f20"/><path d="M118.5,117.1h-.3c-7.4-.3-10.9-6.7-11.7-10.4l-1.9-8.2v-.2c.6-6.1.2-13.6-.3-21.6-.9-15.7-2-35.2-14-45.1l-2-1.7,2.3-1c2.4-1,8.9-2.3,18.4,8.1,11.4,12.6,15.7,27.7,16.4,33.9s1,32.9,1,34.1,0,6.9-3.4,10.2A6.4,6.4,0,0,1,118.5,117.1ZM107.8,98.3l1.8,7.7c0,.3,1.8,7.7,8.7,7.9a3.1,3.1,0,0,0,2.6-1c2-2,2.4-6.4,2.4-7.9s-.2-27.3-.9-33.7h0c-.7-5.9-4.8-20.1-15.7-32.2-5.3-5.8-9.3-7.4-11.8-7.7,10.8,11.2,11.8,29.9,12.7,45.2C108,84.5,108.5,92,107.8,98.3Z" fill="#231f20"/><path d="M26.7,117.1a6.7,6.7,0,0,1-4.7-1.9c-3.4-3.3-3.3-10-3.3-10.3s.2-27.3.9-34,5-21.3,16.5-33.9S55,29.2,55.3,29.4l.8.6-.3,1.5-.4.6C45.3,40.9,43.7,56.5,42.1,73h0c-1,9.8-1.8,17.6-1.3,23.8v.3l-2.1,9.6c-.9,3.7-4.3,10.1-11.8,10.4ZM51,31.4c-2.5,0-6.7,1.3-12.6,7.7-10.9,12.1-15,26.3-15.6,32.2s-1,33.4-1,33.7.4,6,2.4,7.9a3.2,3.2,0,0,0,2.6,1c6.9-.2,8.7-7.6,8.8-7.9l2-9.1c-.5-6.6.3-14.4,1.3-24.3h0C40.4,57.2,42,41.3,51.5,31.4Z" fill="#231f20"/><path d="M75.3,124.8H73.5c-16.6-.3-25.3-6.7-29.8-11.9s-5.5-9.2-6-15.8.2-14.5,1.2-24.5c1.6-16.3,3.3-33.2,14.4-42.9L56,27.6a29.6,29.6,0,0,1,34.1-.2l2.3,1.7c13.1,10.8,14.3,31.1,15.2,47.5.4,8,.9,15.6.2,22-.8,7.9-3.2,13.4-7.8,17.8C92.1,124.1,81,124.8,75.3,124.8ZM73.2,25.2a27.1,27.1,0,0,0-15.4,5,15.5,15.5,0,0,0-2.4,1.9C45.3,40.9,43.7,56.5,42.1,73c-1,9.8-1.8,17.6-1.3,23.8s2.1,10.2,5.3,14,12.1,10.5,27.5,10.8c4.5.1,16.3.2,24.2-7.5,4-3.8,6.1-8.7,6.9-15.8s.2-13.6-.3-21.6h0c-.9-15.7-2-35.2-14-45.1A16.6,16.6,0,0,0,88.3,30a27.1,27.1,0,0,0-14.8-4.8Z" fill="#231f20"/></svg>