<svg xmlns="http://www.w3.org/2000/svg" width="2in" height="2in" viewBox="0 0 144 144"><ellipse cx="57.5" cy="65.3" fill="#231f20" rx="4.2" ry="6.2"/><ellipse cx="88.4" cy="65.3" fill="#231f20" rx="4.2" ry="6.2"/><path fill="#231f20" d="M82.6 103.4c1.3 3.5-3.5 10-9.3 10.2s-11.2-6.5-10.1-10.1 9.6-3.6 10.1-3.6 8.1.1 9.3 3.5zm35.9 13.7h-.3c-7.4-.3-10.9-6.7-11.7-10.4l-1.9-8.2v-.2c.6-6.1.2-13.6-.3-21.6-.9-15.7-2-35.2-14-45.1l-2-1.7 2.3-1c2.4-1 8.9-2.3 18.4 8.1 11.4 12.6 15.7 27.7 16.4 33.9s1 32.9 1 34.1 0 6.9-3.4 10.2a6.4 6.4 0 0 1-4.5 1.9zm-10.7-18.8l1.8 7.7c0 .3 1.8 7.7 8.7 7.9a3.1 3.1 0 0 0 2.6-1c2-2 2.4-6.4 2.4-7.9s-.2-27.3-.9-33.7c-.7-5.9-4.8-20.1-15.7-32.2-5.3-5.8-9.3-7.4-11.8-7.7 10.8 11.2 11.8 29.9 12.7 45.2.4 7.9.9 15.4.2 21.7zm-81.1 18.8a6.7 6.7 0 0 1-4.7-1.9c-3.4-3.3-3.3-10-3.3-10.3s.2-27.3.9-34 5-21.3 16.5-33.9 18.9-7.8 19.2-7.6l.8.6-.3 1.5-.4.6C45.3 40.9 43.7 56.5 42.1 73c-1 9.8-1.8 17.6-1.3 23.8v.3l-2.1 9.6c-.9 3.7-4.3 10.1-11.8 10.4zM51 31.4c-2.5 0-6.7 1.3-12.6 7.7-10.9 12.1-15 26.3-15.6 32.2s-1 33.4-1 33.7.4 6 2.4 7.9a3.2 3.2 0 0 0 2.6 1c6.9-.2 8.7-7.6 8.8-7.9l2-9.1c-.5-6.6.3-14.4 1.3-24.3 1.5-15.4 3.1-31.3 12.6-41.2z"/><path fill="#231f20" d="M75.3 124.8h-1.8c-16.6-.3-25.3-6.7-29.8-11.9s-5.5-9.2-6-15.8.2-14.5 1.2-24.5c1.6-16.3 3.3-33.2 14.4-42.9l2.7-2.1a29.6 29.6 0 0 1 34.1-.2l2.3 1.7c13.1 10.8 14.3 31.1 15.2 47.5.4 8 .9 15.6.2 22-.8 7.9-3.2 13.4-7.8 17.8-7.9 7.7-19 8.4-24.7 8.4zm-2.1-99.6a27.1 27.1 0 0 0-15.4 5 15.5 15.5 0 0 0-2.4 1.9C45.3 40.9 43.7 56.5 42.1 73c-1 9.8-1.8 17.6-1.3 23.8s2.1 10.2 5.3 14 12.1 10.5 27.5 10.8c4.5.1 16.3.2 24.2-7.5 4-3.8 6.1-8.7 6.9-15.8s.2-13.6-.3-21.6c-.9-15.7-2-35.2-14-45.1a16.6 16.6 0 0 0-2.1-1.6 27.1 27.1 0 0 0-14.8-4.8z"/></svg>