<svg xmlns="http://www.w3.org/2000/svg" width="2.7in" height="2.7in" viewBox="0 0 191.7 191.7"><path fill="#fff" d="M124 44.6H67.7A22.7 22.7 0 0 0 45 67.2v56.3a22.7 22.7 0 0 0 22.7 22.7H124a22.7 22.7 0 0 0 22.7-22.7V67.2A22.7 22.7 0 0 0 124 44.6zm-28.2 83a32 32 0 1 1 32.1-32 32 32 0 0 1-32.1 32zm33-57.6a7.6 7.6 0 1 1 7.6-7.6 7.6 7.6 0 0 1-7.6 7.6z"/><path fill="#fff" d="M95.8 76.6a19 19 0 1 0 19.1 19 19 19 0 0 0-19.1-19z"/><path fill="#fff" d="M95.8-.4a95.8 95.8 0 1 0 95.9 95.8A95.8 95.8 0 0 0 95.8-.4zm63.9 123.9a35.7 35.7 0 0 1-35.7 35.7H67.7A35.7 35.7 0 0 1 32 123.5V67.2a35.7 35.7 0 0 1 35.7-35.6H124a35.7 35.7 0 0 1 35.7 35.6z"/></svg>