<svg id="Layer_1" data-name="Layer 1" xmlns="http://www.w3.org/2000/svg" width="2in" height="2in" viewBox="0 0 144 144"><title>other</title><path d="M50.4,92.6c4.4,1.8,7,8.8,4.7,11.3s-6.7,1.7-9.2-1.1-1.9-9.1.8-10.5A4.3,4.3,0,0,1,50.4,92.6Z" fill="#231f20"/><path d="M89.5,92.6c-4.4,1.8-7,8.8-4.7,11.3s6.7,1.7,9.2-1.1,1.9-9.1-.8-10.5A4.3,4.3,0,0,0,89.5,92.6Z" fill="#231f20"/><path d="M85.8,120.5a1.5,1.5,0,0,0-2.2.5,7.7,7.7,0,0,1-5.3,3.4,7,7,0,0,1-5-1.3,4.5,4.5,0,0,1-1.9-3.9v-3.9a6.3,6.3,0,0,0,3.6-1.9,5.4,5.4,0,0,0,1.3-4,1.7,1.7,0,0,0-1.7-1.5,1.6,1.6,0,0,0-1.5,1.7,2.3,2.3,0,0,1-.5,1.7,4.5,4.5,0,0,1-2.6,1,3.9,3.9,0,0,1-2.8-.9,1.8,1.8,0,0,1-.6-1.8,1.7,1.7,0,0,0-1.6-1.7h0a1.6,1.6,0,0,0-1.6,1.6,5.3,5.3,0,0,0,1.5,4.2,6,6,0,0,0,3.3,1.6v3.9a4.5,4.5,0,0,1-1.9,3.9,7,7,0,0,1-5,1.3,7.4,7.4,0,0,1-5.3-3.5,1.6,1.6,0,0,0-2.2-.4,1.5,1.5,0,0,0-.5,2.2,10.9,10.9,0,0,0,7.6,4.9h1.3a10.6,10.6,0,0,0,5.9-1.9,9.1,9.1,0,0,0,1.7-1.7,9.1,9.1,0,0,0,1.7,1.7,10.9,10.9,0,0,0,6,1.9h1.2a10.8,10.8,0,0,0,7.6-4.9A1.5,1.5,0,0,0,85.8,120.5Z" fill="#231f20"/><path d="M92.6,65.3c2.3-3.2,5.2-7.7,7.4-11.2l3.2-4.8c1.4-2,3.2-7.2,5.3-13.9.7-2.2,1.4-4.1,1.8-5.3,1.6-4.2,0-15.5-1.5-20s-6.4-9-12.1-8S82.1,17.3,77.5,29.7c-3.2,8.8-4.6,20.5-5.2,27.7H67.2c-.6-7.1-2.1-18.9-5.3-27.7C57.4,17.3,49.5,3.4,42.8,2.1s-10.3,2-12.2,8c-1.4,4.5-3.1,15.8-1.4,20l1.7,5.4c2.2,6.6,3.9,11.8,5.3,13.8s1.8,2.6,3.2,4.8,5.2,8.1,7.5,11.3c-16,13.2-29.8,44.2-16.6,62.6,9,12.6,26.4,13.6,34.7,14.1,2.2.2,4.3.2,6.3.2,18.8,0,32.2-5.5,39.1-16.3C123,106.5,108.5,77.7,92.6,65.3ZM80.5,30.8C85.4,17.5,92.9,6,97.2,5.2s7.8,3.2,8.6,5.8c1.4,4.6,2.7,14.9,1.5,18l-1.8,5.4c-1.4,4.5-3.6,11.3-4.8,13s-1.8,2.7-3.3,5S92.3,60.3,90,63.5c0-.1-.1-.1-.2-.1l-1.2-.8c.1-2.9.6-18.1.5-23.2S96,22.3,98.7,17.7a1.6,1.6,0,0,0-.5-2.2,1.6,1.6,0,0,0-2.2.6c-1,1.7-10.1,17.5-10,23.3s-.3,16.8-.5,21.6h-.4L82.9,60l-.7-.3-3.2-1-1.8-.5-.9-.2h-.9C75.9,51.8,77.3,39.5,80.5,30.8ZM38.8,47.4C37.6,45.7,35.4,39,34,34.5c-.8-2.3-1.4-4.3-1.9-5.5-1.2-3.1.1-13.4,1.5-18,.8-2.3,2.6-5.9,7-5.9h1.6C46.6,6,54.1,17.5,59,30.8c3.1,8.7,4.5,20.9,5,27h-.4l-4.4,1-.6.2a26,26,0,0,0-4.2,1.5l-1.3.7c-.2-4.7-.5-17.4-.5-21.9s-9-21.6-10-23.3a1.6,1.6,0,0,0-2.2-.6,1.6,1.6,0,0,0-.5,2.2c2.6,4.6,9.6,17.5,9.6,21.7s.4,22.9.5,23.7l-.6.4c-2.2-3.1-5.1-7.7-7.3-11.1S39.4,48.2,38.8,47.4Zm69,76.9c-7,10.9-21.7,15.9-42.6,14.7-7.9-.5-24.2-1.5-32.4-12.9C20.4,108.8,34.5,78.7,50,66.9a35.5,35.5,0,0,1,5.7-3.4,39.1,39.1,0,0,1,10.2-2.8,36.3,36.3,0,0,1,4.2-.3h0l3.4.4A36.7,36.7,0,0,1,86.4,65c1,.5,2,1.2,3.1,1.9h0C104.6,77.7,119.5,106.1,107.8,124.3Z" fill="#231f20"/></svg>