<svg xmlns="http://www.w3.org/2000/svg"><symbol id="cat" viewBox="0 0 144 144"><path fill="#231f20" d="M56.5 90.8c-2 1.9-6.1 1-8.6-.9s-4.6-6-2.7-8.9 5.9-3 8.6-1.6c4.2 2.2 5.4 9 2.7 11.4zm31.8 0c2 1.9 6.1 1 8.6-.9s4.6-6 2.7-8.9-5.9-3-8.6-1.6-5.4 9-2.7 11.4zm.4 16.1a1.6 1.6 0 0 0-2.2.5 7.7 7.7 0 0 1-5.3 3.5 7.6 7.6 0 0 1-5-1.3 4.7 4.7 0 0 1-1.9-3.9v-4a6.2 6.2 0 0 0 3.6-1.8 5.5 5.5 0 0 0 1.3-4 1.6 1.6 0 0 0-3.2.2 2.1 2.1 0 0 1-.5 1.6 4.5 4.5 0 0 1-5.4.2 2 2 0 0 1-.6-1.8 1.7 1.7 0 0 0-1.6-1.7 1.5 1.5 0 0 0-1.6 1.5 5.2 5.2 0 0 0 1.5 4.2 6.2 6.2 0 0 0 3.3 1.7v3.9a4.7 4.7 0 0 1-1.9 3.9 7.6 7.6 0 0 1-5 1.3 7.7 7.7 0 0 1-5.3-3.5 1.6 1.6 0 0 0-2.2-.5 1.5 1.5 0 0 0-.5 2.2 10.6 10.6 0 0 0 7.6 4.9H65a10 10 0 0 0 6-1.9 5.5 5.5 0 0 0 1.7-1.7 5.5 5.5 0 0 0 1.7 1.7 10.2 10.2 0 0 0 6 1.9h1.2a10.5 10.5 0 0 0 7.6-4.9 1.5 1.5 0 0 0-.5-2.2zM39.2 64.5h-.6a1.7 1.7 0 0 1-.9-2.1 17.7 17.7 0 0 1 4.9-6.7 18 18 0 0 1 5.8-3.1c.2 0 .3-.2.4-.3a.6.6 0 0 0-.1-.4L37.6 35.5a1.6 1.6 0 0 1 .4-2.2 1.6 1.6 0 0 1 2.2.4L51.3 50a3.7 3.7 0 0 1 .5 3.2 4 4 0 0 1-2.5 2.4 12.6 12.6 0 0 0-4.6 2.4 13.5 13.5 0 0 0-4 5.5 1.8 1.8 0 0 1-1.5 1zm66.5 0a1.5 1.5 0 0 1-1.5-1 14.5 14.5 0 0 0-4-5.5 13.1 13.1 0 0 0-4.7-2.4 3.8 3.8 0 0 1-2.4-2.4 3.7 3.7 0 0 1 .4-3.2l11.1-16.3a1.6 1.6 0 0 1 2.2-.4 1.6 1.6 0 0 1 .4 2.2l-11 16.3c-.1.1-.2.3-.1.4s.1.3.4.3a17.6 17.6 0 0 1 5.7 3.1 16.2 16.2 0 0 1 4.9 6.7 1.6 1.6 0 0 1-.8 2.1z"/><path fill="#231f20" d="M140.5 98.3a1.5 1.5 0 0 0-2.1-.7 31.9 31.9 0 0 1-5.9 2.1 33.7 33.7 0 0 1-12.8.9 31.2 31.2 0 0 0 4.3-15.5 32.2 32.2 0 0 0-7.4-20.1l.2-36.4a7.8 7.8 0 0 0-13.5-5.3L81.6 46.7a68.6 68.6 0 0 0-18.1 0L41.8 23.3a7.8 7.8 0 0 0-13.5 5.3l.2 36.7a32.5 32.5 0 0 0-7.1 19.8 31.3 31.3 0 0 0 4.2 15.4 33.1 33.1 0 0 1-13.8-.8 31.9 31.9 0 0 1-5.9-2.1 1.5 1.5 0 1 0-1.3 2.8 38.1 38.1 0 0 0 6.4 2.4 45 45 0 0 0 10 1.3 33 33 0 0 0 6.4-.7 48.4 48.4 0 0 0 4.8 5.5 60.3 60.3 0 0 0-8.5 1.4 72.3 72.3 0 0 0-14.8 5.2 1.5 1.5 0 0 0-.7 2.1 1.6 1.6 0 0 0 1.4.9l.7-.2a71.4 71.4 0 0 1 14.1-4.9 80.8 80.8 0 0 1 10.8-1.7h.1c9.4 7.6 22.7 12.4 37.4 12.4s27.9-4.8 37.3-12.3a68 68 0 0 1 9.9 1.6 71.4 71.4 0 0 1 14.1 4.9l.7.2a1.6 1.6 0 0 0 1.4-.9 1.5 1.5 0 0 0-.7-2.1 72.3 72.3 0 0 0-14.8-5.2 65.4 65.4 0 0 0-7.5-1.3 35.7 35.7 0 0 0 4.8-5.5 23.8 23.8 0 0 0 5.5.6 44.9 44.9 0 0 0 9.9-1.3 35.1 35.1 0 0 0 6.4-2.4 1.5 1.5 0 0 0 .8-2.1zM24.6 85.1a29.1 29.1 0 0 1 6.8-18.3l.3-.4-.2-37.8a4.4 4.4 0 0 1 2.9-4.3 4.8 4.8 0 0 1 1.8-.4 4.4 4.4 0 0 1 3.3 1.5l22.8 24.7h.9a62.3 62.3 0 0 1 18.8-.2h.8l22.9-24.6a4.3 4.3 0 0 1 5-1.1 4.4 4.4 0 0 1 2.9 4.3l-.2 37.5.4.4a29.3 29.3 0 0 1 7 18.6 28 28 0 0 1-4.8 15.5c-.2.2-.5.5-.5.8a37.1 37.1 0 0 1-6.6 7.2 1.4 1.4 0 0 0-1.1.9c-8.8 7-21.3 11.4-35.1 11.4-26.5.1-48.1-16-48.1-35.7z"/></symbol><symbol id="other" viewBox="0 0 144 144"><path fill="#231f20" d="M50.4 92.6c4.4 1.8 7 8.8 4.7 11.3s-6.7 1.7-9.2-1.1-1.9-9.1.8-10.5a4.3 4.3 0 0 1 3.7.3zm39.1 0c-4.4 1.8-7 8.8-4.7 11.3s6.7 1.7 9.2-1.1 1.9-9.1-.8-10.5a4.3 4.3 0 0 0-3.7.3zm-3.7 27.9a1.5 1.5 0 0 0-2.2.5 7.7 7.7 0 0 1-5.3 3.4 7 7 0 0 1-5-1.3 4.5 4.5 0 0 1-1.9-3.9v-3.9a6.3 6.3 0 0 0 3.6-1.9 5.4 5.4 0 0 0 1.3-4 1.7 1.7 0 0 0-1.7-1.5 1.6 1.6 0 0 0-1.5 1.7 2.3 2.3 0 0 1-.5 1.7 4.5 4.5 0 0 1-2.6 1 3.9 3.9 0 0 1-2.8-.9 1.8 1.8 0 0 1-.6-1.8 1.7 1.7 0 0 0-1.6-1.7 1.6 1.6 0 0 0-1.6 1.6 5.3 5.3 0 0 0 1.5 4.2 6 6 0 0 0 3.3 1.6v3.9a4.5 4.5 0 0 1-1.9 3.9 7 7 0 0 1-5 1.3 7.4 7.4 0 0 1-5.3-3.5 1.6 1.6 0 0 0-2.2-.4 1.5 1.5 0 0 0-.5 2.2 10.9 10.9 0 0 0 7.6 4.9h1.3a10.6 10.6 0 0 0 5.9-1.9 9.1 9.1 0 0 0 1.7-1.7 9.1 9.1 0 0 0 1.7 1.7 10.9 10.9 0 0 0 6 1.9h1.2a10.8 10.8 0 0 0 7.6-4.9 1.5 1.5 0 0 0-.5-2.2z"/><path fill="#231f20" d="M92.6 65.3c2.3-3.2 5.2-7.7 7.4-11.2l3.2-4.8c1.4-2 3.2-7.2 5.3-13.9.7-2.2 1.4-4.1 1.8-5.3 1.6-4.2 0-15.5-1.5-20s-6.4-9-12.1-8-14.6 15.2-19.2 27.6c-3.2 8.8-4.6 20.5-5.2 27.7h-5.1c-.6-7.1-2.1-18.9-5.3-27.7C57.4 17.3 49.5 3.4 42.8 2.1s-10.3 2-12.2 8c-1.4 4.5-3.1 15.8-1.4 20l1.7 5.4c2.2 6.6 3.9 11.8 5.3 13.8s1.8 2.6 3.2 4.8 5.2 8.1 7.5 11.3c-16 13.2-29.8 44.2-16.6 62.6 9 12.6 26.4 13.6 34.7 14.1 2.2.2 4.3.2 6.3.2 18.8 0 32.2-5.5 39.1-16.3 12.6-19.5-1.9-48.3-17.8-60.7zM80.5 30.8C85.4 17.5 92.9 6 97.2 5.2s7.8 3.2 8.6 5.8c1.4 4.6 2.7 14.9 1.5 18l-1.8 5.4c-1.4 4.5-3.6 11.3-4.8 13s-1.8 2.7-3.3 5-5.1 7.9-7.4 11.1c0-.1-.1-.1-.2-.1l-1.2-.8c.1-2.9.6-18.1.5-23.2s6.9-17.1 9.6-21.7a1.6 1.6 0 0 0-.5-2.2 1.6 1.6 0 0 0-2.2.6c-1 1.7-10.1 17.5-10 23.3s-.3 16.8-.5 21.6h-.4l-2.2-1-.7-.3-3.2-1-1.8-.5-.9-.2h-.9c.5-6.2 1.9-18.5 5.1-27.2zM38.8 47.4c-1.2-1.7-3.4-8.4-4.8-12.9-.8-2.3-1.4-4.3-1.9-5.5-1.2-3.1.1-13.4 1.5-18 .8-2.3 2.6-5.9 7-5.9h1.6C46.6 6 54.1 17.5 59 30.8c3.1 8.7 4.5 20.9 5 27h-.4l-4.4 1-.6.2a26 26 0 0 0-4.2 1.5l-1.3.7c-.2-4.7-.5-17.4-.5-21.9s-9-21.6-10-23.3a1.6 1.6 0 0 0-2.2-.6 1.6 1.6 0 0 0-.5 2.2c2.6 4.6 9.6 17.5 9.6 21.7s.4 22.9.5 23.7l-.6.4c-2.2-3.1-5.1-7.7-7.3-11.1s-2.7-4.1-3.3-4.9zm69 76.9c-7 10.9-21.7 15.9-42.6 14.7-7.9-.5-24.2-1.5-32.4-12.9-12.4-17.3 1.7-47.4 17.2-59.2a35.5 35.5 0 0 1 5.7-3.4 39.1 39.1 0 0 1 10.2-2.8 36.3 36.3 0 0 1 4.2-.3l3.4.4A36.7 36.7 0 0 1 86.4 65c1 .5 2 1.2 3.1 1.9 15.1 10.8 30 39.2 18.3 57.4z"/></symbol><symbol id="dog" viewBox="0 0 144 144"><ellipse cx="57.5" cy="65.3" fill="#231f20" rx="4.2" ry="6.2"/><ellipse cx="88.4" cy="65.3" fill="#231f20" rx="4.2" ry="6.2"/><path fill="#231f20" d="M82.6 103.4c1.3 3.5-3.5 10-9.3 10.2s-11.2-6.5-10.1-10.1 9.6-3.6 10.1-3.6 8.1.1 9.3 3.5zm35.9 13.7h-.3c-7.4-.3-10.9-6.7-11.7-10.4l-1.9-8.2v-.2c.6-6.1.2-13.6-.3-21.6-.9-15.7-2-35.2-14-45.1l-2-1.7 2.3-1c2.4-1 8.9-2.3 18.4 8.1 11.4 12.6 15.7 27.7 16.4 33.9s1 32.9 1 34.1 0 6.9-3.4 10.2a6.4 6.4 0 0 1-4.5 1.9zm-10.7-18.8l1.8 7.7c0 .3 1.8 7.7 8.7 7.9a3.1 3.1 0 0 0 2.6-1c2-2 2.4-6.4 2.4-7.9s-.2-27.3-.9-33.7c-.7-5.9-4.8-20.1-15.7-32.2-5.3-5.8-9.3-7.4-11.8-7.7 10.8 11.2 11.8 29.9 12.7 45.2.4 7.9.9 15.4.2 21.7zm-81.1 18.8a6.7 6.7 0 0 1-4.7-1.9c-3.4-3.3-3.3-10-3.3-10.3s.2-27.3.9-34 5-21.3 16.5-33.9 18.9-7.8 19.2-7.6l.8.6-.3 1.5-.4.6C45.3 40.9 43.7 56.5 42.1 73c-1 9.8-1.8 17.6-1.3 23.8v.3l-2.1 9.6c-.9 3.7-4.3 10.1-11.8 10.4zM51 31.4c-2.5 0-6.7 1.3-12.6 7.7-10.9 12.1-15 26.3-15.6 32.2s-1 33.4-1 33.7.4 6 2.4 7.9a3.2 3.2 0 0 0 2.6 1c6.9-.2 8.7-7.6 8.8-7.9l2-9.1c-.5-6.6.3-14.4 1.3-24.3 1.5-15.4 3.1-31.3 12.6-41.2z"/><path fill="#231f20" d="M75.3 124.8h-1.8c-16.6-.3-25.3-6.7-29.8-11.9s-5.5-9.2-6-15.8.2-14.5 1.2-24.5c1.6-16.3 3.3-33.2 14.4-42.9l2.7-2.1a29.6 29.6 0 0 1 34.1-.2l2.3 1.7c13.1 10.8 14.3 31.1 15.2 47.5.4 8 .9 15.6.2 22-.8 7.9-3.2 13.4-7.8 17.8-7.9 7.7-19 8.4-24.7 8.4zm-2.1-99.6a27.1 27.1 0 0 0-15.4 5 15.5 15.5 0 0 0-2.4 1.9C45.3 40.9 43.7 56.5 42.1 73c-1 9.8-1.8 17.6-1.3 23.8s2.1 10.2 5.3 14 12.1 10.5 27.5 10.8c4.5.1 16.3.2 24.2-7.5 4-3.8 6.1-8.7 6.9-15.8s.2-13.6-.3-21.6c-.9-15.7-2-35.2-14-45.1a16.6 16.6 0 0 0-2.1-1.6 27.1 27.1 0 0 0-14.8-4.8z"/></symbol></svg>