<svg xmlns="http://www.w3.org/2000/svg"><symbol id="youtube" viewBox="0 0 191.7 191.7"><path fill="#fff" d="M93.8 76.6a2.5 2.5 0 0 0 2.5-2.5V56.9a2.5 2.5 0 0 0-4.9 0v17.2a2.5 2.5 0 0 0 2.4 2.5z"/><path fill="#fff" d="M95.7 1a95.9 95.9 0 1 0 95.8 95.9A95.9 95.9 0 0 0 95.7 1zm11.5 48.7h7.1V74a2.1 2.1 0 0 0 1.4 1.7 2.4 2.4 0 0 0 2.7-1.8V49.7h7v32.1h-7v-3a7.8 7.8 0 0 1-3.3 2.9c-2.5 1.2-6.2 1.2-7.4-.8a2.2 2.2 0 0 1-.5-1.4zm-13.7.2h.3a9.4 9.4 0 0 1 9.5 9.5v13.8a9.4 9.4 0 0 1-9.5 9.5h-.3a9.5 9.5 0 0 1-9.5-9.5V59.4a9.5 9.5 0 0 1 9.5-9.5zM68 38.6l4.3 13.2 4.2-13.2h8.1l-8.3 25.6v17.6h-8V64.3h-.1l-8.3-25.7zm72.6 108.3a9.1 9.1 0 0 1-8.1 7.6 357.6 357.6 0 0 1-41.7 2c-12.2-.1-23.5-.9-33.9-2a9.2 9.2 0 0 1-8.2-7.8 144.4 144.4 0 0 1-1.5-15.7 152.2 152.2 0 0 1 1.5-28.1 9.2 9.2 0 0 1 8.1-7.8 325.2 325.2 0 0 1 37.5-2.2 316.7 316.7 0 0 1 38.3 2.2 9.3 9.3 0 0 1 8 7.6 127.1 127.1 0 0 1 1.9 22.8 122.4 122.4 0 0 1-1.9 21.4z"/><path fill="#fff" d="M57.4 110.6h5.8v33.1h6.9v-33.1h6.3v-5.9h-19v5.9zM88 136.7a1.9 1.9 0 0 1-3.7.2v-22.1h-6.4v27a2.7 2.7 0 0 0 .4 1.3c1.1 1.8 4.5 1.8 6.8.7a7 7 0 0 0 2.9-2.6v2.7h6.4v-29.1H88zm20.5-22a4.1 4.1 0 0 0-4.1 4.1v-13.9h-6.1v38.7h6.1v-4a4.1 4.1 0 0 0 4.1 4.1 5.8 5.8 0 0 0 5.8-5.8v-17.3a5.8 5.8 0 0 0-5.8-5.9zm1 21.3a3.4 3.4 0 0 1-3.4 3.4 1.6 1.6 0 0 1-1.6-1.6v-17.5a1.6 1.6 0 0 1 1.6-1.6 3.4 3.4 0 0 1 3.4 3.4zm15.4-22.1a7.6 7.6 0 0 0-7.5 7.5v14.8a7.5 7.5 0 0 0 7.5 7.5h1.1a7.4 7.4 0 0 0 7.4-7.4v-2.6h-5.9v3.5a2.2 2.2 0 0 1-2.3 2.2 2.9 2.9 0 0 1-2.9-2.9v-6.9h11.1v-7.3a8.4 8.4 0 0 0-8.5-8.4zm3.5 11.8h-6v-4a3 3 0 0 1 6 0z"/></symbol><symbol id="twitter" viewBox="0 0 191.7 191.7"><path fill="#fff" d="M95.9 0a95.8 95.8 0 1 0 95.8 95.8A95.8 95.8 0 0 0 95.9 0zm49 68.2a49.8 49.8 0 0 1-6.9 6c0 1.5.9 36.9-28.9 55.9a62.7 62.7 0 0 1-66.1.8 50.5 50.5 0 0 0 13.5-1.4 54.2 54.2 0 0 0 16.5-7.1 28.9 28.9 0 0 1-12.8-6.9 26.3 26.3 0 0 1-6.2-8.7h9a27.3 27.3 0 0 1-17.1-23.2 24.4 24.4 0 0 0 5.3 2.1 14.7 14.7 0 0 0 2.6.5 27.3 27.3 0 0 1-7-16.1 26.5 26.5 0 0 1 2.6-13.5 58.1 58.1 0 0 0 17.2 14.9 58.9 58.9 0 0 0 28 7.8 19.3 19.3 0 0 1-.6-4.9 21.5 21.5 0 0 1 21.5-21.5 21.8 21.8 0 0 1 16.3 7.4l13.7-5.6a26.3 26.3 0 0 1-2.8 6.1 30.8 30.8 0 0 1-3.8 4.8l4.4-.6a23.5 23.5 0 0 0 5.4-1.4 48.5 48.5 0 0 1-3.8 4.6z"/></symbol><symbol id="facebook" viewBox="0 0 191.7 191.7"><path fill="#fff" d="M95.8 0a95.9 95.9 0 1 0 95.9 95.8A95.8 95.8 0 0 0 95.8 0zm25.4 60.9h-10.4a5.9 5.9 0 0 0-5.9 5.9v10.3h16.3v19.4h-16.3v53.3H82V96.5H70.8V77.1H82V60.9a19.4 19.4 0 0 1 19.4-19.4h19.8z"/></symbol><symbol id="instagram" viewBox="0 0 191.7 191.7"><path fill="#fff" d="M124 44.6H67.7A22.7 22.7 0 0 0 45 67.2v56.3a22.7 22.7 0 0 0 22.7 22.7H124a22.7 22.7 0 0 0 22.7-22.7V67.2A22.7 22.7 0 0 0 124 44.6zm-28.2 83a32 32 0 1 1 32.1-32 32 32 0 0 1-32.1 32zm33-57.6a7.6 7.6 0 1 1 7.6-7.6 7.6 7.6 0 0 1-7.6 7.6z"/><path fill="#fff" d="M95.8 76.6a19 19 0 1 0 19.1 19 19 19 0 0 0-19.1-19z"/><path fill="#fff" d="M95.8-.4a95.8 95.8 0 1 0 95.9 95.8A95.8 95.8 0 0 0 95.8-.4zm63.9 123.9a35.7 35.7 0 0 1-35.7 35.7H67.7A35.7 35.7 0 0 1 32 123.5V67.2a35.7 35.7 0 0 1 35.7-35.6H124a35.7 35.7 0 0 1 35.7 35.6z"/></symbol></svg>