<svg xmlns="http://www.w3.org/2000/svg"><symbol id="logo" viewBox="0 0 190.3 71.4"><path fill="#fff" d="M86.8 27.7v10.1h-5.9V17.6h5.9v8.1h4.8v-8.1h5.9v20.2h-5.9V27.7zm28.1-5.2v15.3h-5.4v-2.4a5.8 5.8 0 0 1-4.8 2.7c-2.7 0-4-1.3-4-3.9V22.9l5.4-.4v11.6c0 1 .3 1.5 1 1.5s2.4-1.7 2.4-5.2v-7.5zm24.9 15.3h-5.4V26.6c0-1-.3-1.5-.8-1.5s-2 1.4-2 4.2v8.5h-5.4v-11c0-1.1-.3-1.7-.8-1.7s-2 1.5-2 4.3v8.4H118v-15a48.9 48.9 0 0 0 5.4-.3V25a5.6 5.6 0 0 1 4.7-2.5 3.7 3.7 0 0 1 3.5 2.4 5.5 5.5 0 0 1 4.5-2.5c2.5 0 3.7 1.3 3.7 3.8zm18.2-.5a11.3 11.3 0 0 1-3.9.8c-1.9 0-3-.6-3.4-1.8a4.6 4.6 0 0 1-3.9 1.8c-3.2 0-4.8-1.4-4.8-4.4s1.5-3.7 4.4-4.6 3.9-1.9 3.9-3-.7-2.3-2.2-2.3-2.7.7-2.7 2.2a8.6 8.6 0 0 0 .4 1.8l-2.6-.5a6.9 6.9 0 0 1-.2-1.3c0-2.4 2.2-3.6 6.5-3.6s6.2 1.1 6.2 3.4v9c0 1 .3 1.4.9 1.4l.8-.3zm-7.7-8.5a4 4 0 0 1-1.2 1 3.4 3.4 0 0 0-1.6 3.3c0 2 .3 2.9 1.1 2.9s1.7-.9 1.7-2.9zm22.8 9h-5.4v-11c0-1.1-.3-1.6-1-1.6s-1.1.4-1.6 1.3a6.2 6.2 0 0 0-.7 3.1v8.2H159v-15a47.5 47.5 0 0 0 5.4-.3v2.8a5.8 5.8 0 0 1 4.9-2.8c2.5 0 3.8 1.3 3.8 3.8zm13.7-5.5l2.2.7c-.2 3.4-2.2 5.2-6.1 5.2s-7.5-2.5-7.5-7.5a8.8 8.8 0 0 1 2-5.9 6.2 6.2 0 0 1 5.1-2.3c4.3 0 6.5 2.7 6.5 8.3h-7.9c0 3.9 1 5.9 3 5.9s2.8-1.1 2.8-3.3a4.5 4.5 0 0 0-.1-1.1zm-5.7-3.2h3.2c0-3.4-.5-5.2-1.6-5.2s-1.4 1.3-1.6 3.9zM77 .9v.8h-2v7.4h-2.5V1.7h-2.1V.9zm.6 8.2V3h2.2v6.1zM78.7.7c.7 0 1 .2 1 .7s-.3.8-1 .8-1-.2-1-.8.3-.7 1-.7zm11.2 8.4h-2.2V4.5q0-.6-.3-.6c-.6 0-.8.6-.8 1.7v3.5h-2.2V4.6c0-.4-.1-.7-.4-.7s-.8.6-.8 1.7v3.5H81V3l2.2-.2v1.1a2.4 2.4 0 0 1 1.9-1.1 1.8 1.8 0 0 1 1.5 1 2.2 2.2 0 0 1 1.8-1c1 0 1.5.5 1.5 1.6zm10.2 0h-2.2V4.5c0-.4-.2-.6-.4-.6s-.8.6-.8 1.7v3.5h-2.2V4.6c0-.4-.1-.7-.3-.7s-.8.6-.8 1.7v3.5h-2.2V3l2.2-.2v1.1a2.3 2.3 0 0 1 1.9-1.1 1.6 1.6 0 0 1 1.4 1 2.4 2.4 0 0 1 1.8-1 1.4 1.4 0 0 1 1.6 1.6zm1.2 0V3h2.2v6.1zm1.1-8.4c.7 0 1.1.2 1.1.7s-.4.8-1.1.8-1-.2-1-.8.3-.7 1-.7zm8.1 8.4h-2.2V4.6c0-.4-.1-.7-.4-.7a1 1 0 0 0-.7.6 4.4 4.4 0 0 0-.2 1.3v3.3h-2.2V3l2.2-.2V4a2.2 2.2 0 0 1 2-1.1 1.3 1.3 0 0 1 1.5 1.5zm6-4.5l-1.1.2c0-1-.4-1.4-1.3-1.4s-.7.2-.7.6.4.7 1.3 1 2.1 1.3 2.1 2.2-.9 2-2.7 2-2.7-.7-2.7-2l1.1-.3v.4a1 1 0 0 0 .4.9 1.5 1.5 0 0 0 1.1.4c.5 0 .8-.2.8-.6s-.5-.7-1.3-1-1.9-1.3-1.9-2.2a1.6 1.6 0 0 1 .7-1.4 2.9 2.9 0 0 1 1.9-.5c1.4 0 2.1.5 2.3 1.7zm15 4.5V.9h3.4c2.5 0 3.7 1.3 3.7 4.1s-1.3 4.1-3.8 4.1zm2.4-.7h.6a1.1 1.1 0 0 0 1.2-.7 7.6 7.6 0 0 0 .4-2.7 7.6 7.6 0 0 0-.4-2.7 1.2 1.2 0 0 0-1.2-.8h-.6zm5.6.7V3h2.2v6.1zm1.2-8.4c.6 0 1 .2 1 .7s-.4.8-1 .8-1.1-.2-1.1-.8.4-.7 1.1-.7zm7 3.9l-1 .2c0-1-.5-1.4-1.3-1.4s-.8.2-.8.6.5.7 1.4 1 2 1.3 2 2.2-.9 2-2.6 2-2.8-.7-2.8-2l1.2-.3c0 .2-.1.3-.1.4a1.1 1.1 0 0 0 .5.9 1.3 1.3 0 0 0 1 .4c.6 0 .8-.2.8-.6s-.4-.7-1.3-1-1.9-1.3-1.9-2.2a1.9 1.9 0 0 1 .7-1.4 3.1 3.1 0 0 1 2-.5c1.3 0 2.1.5 2.2 1.7zm4.5-1.6v.7h-1V8c0 .3.1.4.2.4s.2-.1.3-.3h.6c-.2.6-.7.9-1.7.9s-1.6-.3-1.6-1.3v-4h-.8V3h.8V2l2.2-1v2zm5 2.2h-1.5c.1-.2.1-.4.2-.5v-.5c0-.2-.1-.3-.2-.3s-.3.1-.4.5a1.8 1.8 0 0 0-.2 1v3.7h-2.2V3h2.2v1a1.4 1.4 0 0 1 1.3-1c.7 0 1 .3 1 1.1a1.7 1.7 0 0 1-.1.7 1.1 1.1 0 0 1-.1.4zm1 3.9V3h2.2v6.1zm1.1-8.4c.7 0 1 .2 1 .7s-.3.8-1 .8-1-.2-1-.8.3-.7 1-.7zm6.6 5.7l.9.3v.2c0 1.5-.9 2.3-2.6 2.3a2.7 2.7 0 0 1-3-3 3.5 3.5 0 0 1 .9-2.5 3.2 3.2 0 0 1 2.3-.9c1.4 0 2.2.7 2.2 1.9l-1.1.5v-.5c0-.9-.3-1.3-.8-1.3s-1.2.8-1.2 2.5a9.5 9.5 0 0 0 .2 2.2 1 1 0 0 0 1 .6c.8 0 1.2-.5 1.2-1.6a2 2 0 0 0 0-.7zm5-3.4v.7h-1V8c0 .3.1.4.3.4s.2-.1.2-.3h.6c-.1.6-.7.9-1.6.9s-1.7-.4-1.7-1.4v-4h-.7V3h.7V2l2.2-1v2zm-46.1 1.2l1.3 2.2a8.8 8.8 0 0 0 .9-2.6v-.2h.7a5.9 5.9 0 0 1-1.2 3.4l1.3 2.1h-2.4l-.3-.5a3.7 3.7 0 0 1-1.9.7 2.9 2.9 0 0 1-1.9-.7 2.2 2.2 0 0 1-.8-1.8c0-.9.6-1.7 2-2.4a3.4 3.4 0 0 1-.7-1.7 1.6 1.6 0 0 1 .7-1.4 2.1 2.1 0 0 1 1.6-.6c1.2 0 1.8.6 1.8 1.6a2.1 2.1 0 0 1-1.1 1.9zm-1.9.8a1.2 1.2 0 0 0-.6 1 3.7 3.7 0 0 0 .5 1.6 1.7 1.7 0 0 0 1.2.8c.2 0 .4-.2.7-.4zm1.5-1.4c.5-.3.8-.6.8-1.1s-.3-1.1-1-1.1a.5.5 0 0 0-.6.6 1.9 1.9 0 0 0 .2.7z" style="isolation:isolate"/><g fill="#fff" style="isolation:isolate"><path d="M109.8 51.4l-2.8.5a3.4 3.4 0 0 0 .2-1.3c0-2.4-1.4-3.6-4.3-3.6s-3.3.8-3.3 2.5 1.2 2.2 3.7 3.1c4.9 1.7 7.3 4.1 7.3 7.4a5.5 5.5 0 0 1-2 4.6 8.1 8.1 0 0 1-5.5 1.8c-5 0-7.5-2-7.5-5.9 0-.3.1-.7.1-1.1l2.8-.7a11.1 11.1 0 0 0-.3 2.3c0 2.5 1.4 3.8 4.3 3.8s3.5-1 3.5-2.8-1.4-2.5-4.2-3.5-5.9-3.8-5.9-7a5.3 5.3 0 0 1 2-4.4 7.7 7.7 0 0 1 5.2-1.7c4.4 0 6.7 2 6.7 6zm9.9-.7c4.9 0 7.4 2.6 7.4 7.8s-2.5 7.8-7.4 7.8-7.4-2.6-7.4-7.8 2.4-7.8 7.4-7.8zm0 1.3c-1.2 0-1.8 2.2-1.8 6.5s.6 6.5 1.8 6.5 1.8-2.2 1.8-6.5-.6-6.5-1.8-6.5zm20.3 7.3l2.3.7v.6c0 3.8-2.1 5.7-6.2 5.7s-7.4-2.5-7.4-7.5a8 8 0 0 1 2.1-5.9 7.8 7.8 0 0 1 5.8-2.3c3.5 0 5.2 1.6 5.2 4.7l-2.5 1.3v-1.5c0-2.1-.7-3.2-2.1-3.2s-2.9 2.1-2.9 6.3a16.5 16.5 0 0 0 .6 5.4 2.3 2.3 0 0 0 2.3 1.4q3 0 3-3.9c0-.4-.1-1-.2-1.8zm4.3 6.7V51.1a52.9 52.9 0 0 0 5.4-.4V66zm2.7-20.7c1.7 0 2.5.6 2.5 1.9s-.8 2-2.5 2-2.5-.7-2.5-2 .8-1.9 2.5-1.9zm16.4 15.2l2.2.7c-.2 3.4-2.2 5.1-6.1 5.1s-7.5-2.4-7.5-7.4a9.2 9.2 0 0 1 2-6 6.5 6.5 0 0 1 5.1-2.3c4.3 0 6.5 2.8 6.5 8.4h-7.9c0 3.9 1 5.9 3 5.9s2.8-1.1 2.8-3.4a4.1 4.1 0 0 0-.1-1zm-5.7-3.2h3.2c0-3.5-.5-5.2-1.6-5.2s-1.4 1.3-1.6 3.9zm18.3-6.2v1.7h-2.4v10.5c0 .7.2 1 .6 1s.5-.2.6-.6h1.5c-.4 1.6-1.8 2.4-4.1 2.4s-4-1.2-4-3.5v-9.8h-1.8v-1.7h1.8v-2.6a31.3 31.3 0 0 0 5.4-2.3v4.9z"/><path d="M190.3 51l-6.9 16.9c-.9 2.3-2.2 3.5-3.8 3.5a3.1 3.1 0 0 1-3.1-2l1.8-1.3c.2 1.1.6 1.7 1.3 1.7s1.4-.7 1.9-2l.4-1.1-6-15.7h5.9l3 8.8 3.5-8.8z"/></g><path fill="#fff" d="M61 .4v.5h-1.2v4.3h-1.5V.9h-1.1V.4zm.3 4.8V.4h1.2v2a1.3 1.3 0 0 1 1.2-.7c.6 0 .9.2.9.8v2.7h-1.3V2.5c0-.2 0-.3-.2-.3s-.3.1-.4.4a1.9 1.9 0 0 0-.2.8v1.8zm6.5-1.3h.5a1.2 1.2 0 0 1-1.4 1.3 1.6 1.6 0 0 1-1.8-1.8 2.2 2.2 0 0 1 .5-1.4 1.3 1.3 0 0 1 1.2-.5c1 0 1.5.6 1.5 1.9h-1.8c0 .9.2 1.4.7 1.4s.6-.3.6-.8zm-1.3-.8h.7q0-1.2-.3-1.2c-.3 0-.4.3-.4.9z" style="isolation:isolate"/><path fill="#fff" d="M22.1 8.5c1.4 8.8-9.7 18.2-16.2 16.6-2.3-.5-3.8-2.6-4.2-3C-1.4 18 .6 12.2.9 11.2c2-6 8.6-12.6 14.6-10.9 3.6 1 6.1 4.8 6.6 8.2zm45.2 49.2c.5 6.4-7.3 10.5-8.6 11.2s-7.8 3.9-12.5.9a9.1 9.1 0 0 1-4-7.1c-.3-7.5 10.8-15.9 18.5-13.1a10.1 10.1 0 0 1 6.6 8.1z"/><path fill="#fff" d="M70.1 20.9c4.1 6.2 1 17.3-6 23.2-4 3.3-11.3 6.6-15.7 3.6-2.4-1.6-3.1-4.5-3.4-6.3-1.5-6.7 2.1-12.4 3-13.7 4.6-7 14.1-12.4 19.6-9.3a6.6 6.6 0 0 1 2.5 2.5zM53 6c3 4.4.3 10.2-.2 11.3a15.1 15.1 0 0 1-6.6 6.9c-4.9 3.1-9.9 2.8-14.3 2.6s-9.6-.5-11.1-3.1c-2.5-4.4 4.8-12.3 6.1-13.6s7.5-8.3 15.6-8.3c1.9.1 7.6 0 10.5 4.2zM42.6 29.1s-13.1.5-17.9.3-15.2-4.8-21.6 2.4.9 14.6 3.4 16.7 11.8 2 11.8 2-.3 7.3 3.2 10.5 8.6 4.8 11.7 4 7.8-4.2 8.6-7.2a41.4 41.4 0 0 0 1.3-10.6c-.1-2-.5-18.1-.5-18.1z"/></symbol></svg>