<svg xmlns="http://www.w3.org/2000/svg" width="2.7in" height="2.7in" viewBox="0 0 191.7 191.7"><path fill="#fff" d="M95.9 0a95.8 95.8 0 1 0 95.8 95.8A95.8 95.8 0 0 0 95.9 0zm49 68.2a49.8 49.8 0 0 1-6.9 6c0 1.5.9 36.9-28.9 55.9a62.7 62.7 0 0 1-66.1.8 50.5 50.5 0 0 0 13.5-1.4 54.2 54.2 0 0 0 16.5-7.1 28.9 28.9 0 0 1-12.8-6.9 26.3 26.3 0 0 1-6.2-8.7h9a27.3 27.3 0 0 1-17.1-23.2 24.4 24.4 0 0 0 5.3 2.1 14.7 14.7 0 0 0 2.6.5 27.3 27.3 0 0 1-7-16.1 26.5 26.5 0 0 1 2.6-13.5 58.1 58.1 0 0 0 17.2 14.9 58.9 58.9 0 0 0 28 7.8 19.3 19.3 0 0 1-.6-4.9 21.5 21.5 0 0 1 21.5-21.5 21.8 21.8 0 0 1 16.3 7.4l13.7-5.6a26.3 26.3 0 0 1-2.8 6.1 30.8 30.8 0 0 1-3.8 4.8l4.4-.6a23.5 23.5 0 0 0 5.4-1.4 48.5 48.5 0 0 1-3.8 4.6z"/></svg>