<svg xmlns="http://www.w3.org/2000/svg" width="2.7in" height="2.7in" viewBox="0 0 191.7 191.7"><path fill="#fff" d="M93.8 76.6a2.5 2.5 0 0 0 2.5-2.5V56.9a2.5 2.5 0 0 0-4.9 0v17.2a2.5 2.5 0 0 0 2.4 2.5z"/><path fill="#fff" d="M95.7 1a95.9 95.9 0 1 0 95.8 95.9A95.9 95.9 0 0 0 95.7 1zm11.5 48.7h7.1V74a2.1 2.1 0 0 0 1.4 1.7 2.4 2.4 0 0 0 2.7-1.8V49.7h7v32.1h-7v-3a7.8 7.8 0 0 1-3.3 2.9c-2.5 1.2-6.2 1.2-7.4-.8a2.2 2.2 0 0 1-.5-1.4zm-13.7.2h.3a9.4 9.4 0 0 1 9.5 9.5v13.8a9.4 9.4 0 0 1-9.5 9.5h-.3a9.5 9.5 0 0 1-9.5-9.5V59.4a9.5 9.5 0 0 1 9.5-9.5zM68 38.6l4.3 13.2 4.2-13.2h8.1l-8.3 25.6v17.6h-8V64.3h-.1l-8.3-25.7zm72.6 108.3a9.1 9.1 0 0 1-8.1 7.6 357.6 357.6 0 0 1-41.7 2c-12.2-.1-23.5-.9-33.9-2a9.2 9.2 0 0 1-8.2-7.8 144.4 144.4 0 0 1-1.5-15.7 152.2 152.2 0 0 1 1.5-28.1 9.2 9.2 0 0 1 8.1-7.8 325.2 325.2 0 0 1 37.5-2.2 316.7 316.7 0 0 1 38.3 2.2 9.3 9.3 0 0 1 8 7.6 127.1 127.1 0 0 1 1.9 22.8 122.4 122.4 0 0 1-1.9 21.4z"/><path fill="#fff" d="M57.4 110.6h5.8v33.1h6.9v-33.1h6.3v-5.9h-19v5.9zM88 136.7a1.9 1.9 0 0 1-3.7.2v-22.1h-6.4v27a2.7 2.7 0 0 0 .4 1.3c1.1 1.8 4.5 1.8 6.8.7a7 7 0 0 0 2.9-2.6v2.7h6.4v-29.1H88zm20.5-22a4.1 4.1 0 0 0-4.1 4.1v-13.9h-6.1v38.7h6.1v-4a4.1 4.1 0 0 0 4.1 4.1 5.8 5.8 0 0 0 5.8-5.8v-17.3a5.8 5.8 0 0 0-5.8-5.9zm1 21.3a3.4 3.4 0 0 1-3.4 3.4 1.6 1.6 0 0 1-1.6-1.6v-17.5a1.6 1.6 0 0 1 1.6-1.6 3.4 3.4 0 0 1 3.4 3.4zm15.4-22.1a7.6 7.6 0 0 0-7.5 7.5v14.8a7.5 7.5 0 0 0 7.5 7.5h1.1a7.4 7.4 0 0 0 7.4-7.4v-2.6h-5.9v3.5a2.2 2.2 0 0 1-2.3 2.2 2.9 2.9 0 0 1-2.9-2.9v-6.9h11.1v-7.3a8.4 8.4 0 0 0-8.5-8.4zm3.5 11.8h-6v-4a3 3 0 0 1 6 0z"/></svg>